<svg width="269" height="265" viewBox="0 0 269 265" fill="none" xmlns="http://www.w3.org/2000/svg">
<path d="M49.9302 2.3154C30.4817 8.58907 12.0462 26.1958 4.55046 45.624C-1.122 59.9927 -1.52718 83.4683 3.53752 102.694C8.60222 121.92 25.0118 153.693 40.6111 174.538C57.4259 196.799 88.4218 228.167 114.758 249.215L134.409 265L149.198 253.262C187.285 222.703 220.307 188.097 239.147 158.955C266.294 117.063 275.613 74.5638 264.268 45.624C258.191 30.2433 242.794 13.4461 228.005 6.16055C217.876 1.30352 214.026 0.494012 197.212 0.494012C179.384 0.494012 176.75 1.10114 164.392 7.17243C155.884 11.22 147.78 17.2913 142.715 23.1602L134.409 32.4695L126.103 23.1602C121.039 17.2913 112.935 11.22 104.426 7.17243C93.0814 1.50589 88.4219 0.494012 74.6459 0.0892593C65.3268 -0.315494 54.9948 0.696389 49.9302 2.3154Z" fill="#FF0000"/>
</svg>
