<svg width="231" height="54" viewBox="0 0 231 54" fill="none" xmlns="http://www.w3.org/2000/svg">
<path d="M78.875 41V11.9091H99.3295V18.2727H86.7727V23.2727H98.0795V29.6364H86.7727V41H78.875ZM119.45 11.9091H127.348V30.5455C127.348 32.7614 126.818 34.679 125.757 36.2983C124.706 37.9081 123.238 39.1534 121.354 40.0341C119.469 40.9053 117.282 41.3409 114.791 41.3409C112.282 41.3409 110.085 40.9053 108.2 40.0341C106.316 39.1534 104.848 37.9081 103.797 36.2983C102.755 34.679 102.234 32.7614 102.234 30.5455V11.9091H110.132V29.8636C110.132 30.7633 110.331 31.5682 110.729 32.2784C111.126 32.9792 111.676 33.5284 112.376 33.9261C113.087 34.3239 113.892 34.5227 114.791 34.5227C115.7 34.5227 116.505 34.3239 117.206 33.9261C117.907 33.5284 118.456 32.9792 118.854 32.2784C119.251 31.5682 119.45 30.7633 119.45 29.8636V11.9091ZM156.272 11.9091V41H149.681L139.17 25.7159H138.999V41H131.102V11.9091H137.806L148.147 27.1364H148.374V11.9091H156.272ZM185.413 7.52V34.8H190.733V7.52H185.413ZM160.653 10.16V14.4H180.213V10.16H160.653ZM160.253 30.4C166.133 30.4 174.093 30.24 180.973 29.08L180.693 25.2C174.013 25.96 165.693 26.04 159.733 26.04L160.253 30.4ZM163.573 13.88V26.56H168.693V13.88H163.573ZM172.173 13.88V26.56H177.253V13.88H172.173ZM180.933 14V18.24H188.293V14H180.933ZM180.933 21.44V25.72H188.293V21.44H180.933ZM166.253 39.68V43.92H191.573V39.68H166.253ZM166.253 32.8V42.88H171.613V32.8H166.253ZM203.829 26.4545V41H199.908V26.4545H203.829ZM211.082 41.1989C209.898 41.1989 208.885 40.9645 208.042 40.4957C207.199 40.0223 206.553 39.3641 206.103 38.5213C205.654 37.6738 205.429 36.6913 205.429 35.5739C205.429 34.4564 205.654 33.4763 206.103 32.6335C206.553 31.786 207.199 31.1278 208.042 30.6591C208.885 30.1856 209.898 29.9489 211.082 29.9489C212.266 29.9489 213.279 30.1856 214.122 30.6591C214.965 31.1278 215.611 31.786 216.061 32.6335C216.511 33.4763 216.735 34.4564 216.735 35.5739C216.735 36.6913 216.511 37.6738 216.061 38.5213C215.611 39.3641 214.965 40.0223 214.122 40.4957C213.279 40.9645 212.266 41.1989 211.082 41.1989ZM211.11 38.3011C211.442 38.3011 211.728 38.1899 211.97 37.9673C212.211 37.7448 212.398 37.4276 212.531 37.0156C212.663 36.6037 212.73 36.1136 212.73 35.5455C212.73 34.9725 212.663 34.4825 212.531 34.0753C212.398 33.6634 212.211 33.3461 211.97 33.1236C211.728 32.901 211.442 32.7898 211.11 32.7898C210.76 32.7898 210.459 32.901 210.208 33.1236C209.958 33.3461 209.766 33.6634 209.633 34.0753C209.501 34.4825 209.434 34.9725 209.434 35.5455C209.434 36.1136 209.501 36.6037 209.633 37.0156C209.766 37.4276 209.958 37.7448 210.208 37.9673C210.459 38.1899 210.76 38.3011 211.11 38.3011ZM223.582 45.3182C222.488 45.3182 221.551 45.1619 220.77 44.8494C219.993 44.5417 219.389 44.1155 218.958 43.571C218.532 43.0313 218.293 42.411 218.241 41.7102H222.02C222.057 41.9422 222.152 42.1293 222.304 42.2713C222.455 42.4134 222.649 42.5152 222.886 42.5767C223.127 42.643 223.397 42.6761 223.696 42.6761C224.202 42.6761 224.621 42.553 224.953 42.3068C225.289 42.0606 225.457 41.6155 225.457 40.9716V39.125H225.343C225.201 39.4943 224.984 39.8092 224.69 40.0696C224.396 40.3253 224.044 40.5218 223.632 40.6591C223.22 40.7917 222.768 40.858 222.275 40.858C221.499 40.858 220.784 40.678 220.13 40.3182C219.482 39.9583 218.961 39.3878 218.568 38.6065C218.18 37.8253 217.985 36.8049 217.985 35.5455C217.985 34.2292 218.189 33.1591 218.596 32.3352C219.008 31.5114 219.538 30.9077 220.187 30.5241C220.841 30.1406 221.527 29.9489 222.247 29.9489C222.787 29.9489 223.26 30.0436 223.667 30.233C224.074 30.4176 224.415 30.6662 224.69 30.9787C224.965 31.2865 225.173 31.625 225.315 31.9943H225.4V30.0909H229.321V40.9716C229.321 41.8949 229.082 42.6785 228.603 43.3224C228.13 43.9711 227.462 44.4659 226.6 44.8068C225.739 45.1477 224.733 45.3182 223.582 45.3182ZM223.724 38.0739C224.084 38.0739 224.392 37.9744 224.647 37.7756C224.908 37.572 225.107 37.2831 225.244 36.9091C225.386 36.5303 225.457 36.0758 225.457 35.5455C225.457 35.0057 225.386 34.544 225.244 34.1605C225.107 33.7723 224.908 33.4763 224.647 33.2727C224.392 33.0644 224.084 32.9602 223.724 32.9602C223.364 32.9602 223.056 33.0644 222.801 33.2727C222.55 33.4763 222.356 33.7723 222.218 34.1605C222.086 34.544 222.02 35.0057 222.02 35.5455C222.02 36.0852 222.086 36.5445 222.218 36.9233C222.356 37.2973 222.55 37.5838 222.801 37.7827C223.056 37.9768 223.364 38.0739 223.724 38.0739Z" fill="black"/>
<path d="M14.6167 32.7893C14.6167 31.8463 15.0052 30.9418 15.6967 30.275C16.3883 29.6081 17.3262 29.2335 18.3042 29.2335C19.2822 29.2335 20.2201 29.6081 20.9117 30.275C21.6032 30.9418 21.9917 31.8463 21.9917 32.7893V39.9009C21.9917 40.844 21.6032 41.7484 20.9117 42.4153C20.2201 43.0821 19.2822 43.4567 18.3042 43.4567C17.3262 43.4567 16.3883 43.0821 15.6967 42.4153C15.0052 41.7484 14.6167 40.844 14.6167 39.9009V32.7893ZM25.6792 32.7893C25.6792 31.8463 26.0677 30.9418 26.7592 30.275C27.4508 29.6081 28.3887 29.2335 29.3667 29.2335C30.3447 29.2335 31.2826 29.6081 31.9742 30.275C32.6657 30.9418 33.0542 31.8463 33.0542 32.7893V39.9009C33.0542 40.844 32.6657 41.7484 31.9742 42.4153C31.2826 43.0821 30.3447 43.4567 29.3667 43.4567C28.3887 43.4567 27.4508 43.0821 26.7592 42.4153C26.0677 41.7484 25.6792 40.844 25.6792 39.9009V32.7893ZM36.7417 32.7893C36.7417 31.8463 37.1302 30.9418 37.8217 30.275C38.5133 29.6081 39.4512 29.2335 40.4292 29.2335C41.4072 29.2335 42.3451 29.6081 43.0367 30.275C43.7282 30.9418 44.1167 31.8463 44.1167 32.7893V39.9009C44.1167 40.844 43.7282 41.7484 43.0367 42.4153C42.3451 43.0821 41.4072 43.4567 40.4292 43.4567C39.4512 43.4567 38.5133 43.0821 37.8217 42.4153C37.1302 41.7484 36.7417 40.844 36.7417 39.9009V32.7893Z" fill="#7D53D6"/>
<path d="M21.2289 0.272272C21.4367 0.401439 21.6179 0.571836 21.7623 0.77373C21.9066 0.975623 22.0112 1.20506 22.0701 1.44893C22.129 1.6928 22.141 1.94633 22.1055 2.19503C22.07 2.44373 21.9877 2.68273 21.8632 2.89839L12.4748 19.1413H46.5252L37.1331 2.89839C36.8818 2.46283 36.8074 1.94146 36.9263 1.44896C37.0453 0.95647 37.3478 0.533202 37.7674 0.272272C38.1869 0.0113421 38.6891 -0.0658751 39.1635 0.057607C39.6379 0.181089 40.0457 0.495156 40.297 0.930716L50.8248 19.1413H57.1562C57.6452 19.1413 58.1142 19.3429 58.46 19.7019C58.8057 20.0609 59 20.5477 59 21.0554V24.8835C59 25.3912 58.8057 25.878 58.46 26.237C58.1142 26.5959 57.6452 26.7976 57.1562 26.7976H54.8589L48.0592 51.5122C47.894 52.1127 47.5446 52.6409 47.0642 53.0167C46.5837 53.3925 45.9984 53.5954 45.3968 53.5947H13.6069C13.0053 53.5954 12.4199 53.3925 11.9395 53.0167C11.459 52.6409 11.1097 52.1127 10.9445 51.5122L4.14106 26.7976H1.84375C1.35476 26.7976 0.885792 26.5959 0.540022 26.237C0.194252 25.878 0 25.3912 0 24.8835V21.0554C0 20.5477 0.194252 20.0609 0.540022 19.7019C0.885792 19.3429 1.35476 19.1413 1.84375 19.1413H8.17519L18.6956 0.930716C18.82 0.715014 18.9842 0.526873 19.1787 0.377039C19.3731 0.227205 19.5941 0.118614 19.829 0.0574683C20.064 -0.00367693 20.3082 -0.016178 20.5477 0.0206786C20.7873 0.0575351 21.0175 0.143027 21.2253 0.272272H21.2289ZM7.97606 26.7976L14.2964 49.7666H44.7036L51.0239 26.7976H7.97606Z" fill="#7D53D6"/>
</svg>
