<svg width="233" height="61" viewBox="0 0 233 61" fill="none" xmlns="http://www.w3.org/2000/svg">
<path d="M76.6349 3.73626C72.1514 3.61172 67.5435 3.73626 63.06 3.73626C62.0637 3.61172 61.0674 4.4835 60.8183 5.35528C57.3312 16.9375 54.2177 28.7688 50.606 40.351C35.5367 40.4755 20.5919 40.351 5.5226 40.4755C2.53364 40.4755 2.53364 45.3326 5.5226 45.208C20.9655 45.3326 36.4085 45.208 51.8514 45.208C53.2214 45.3326 54.5913 44.3363 54.8404 42.9663C58.203 31.3841 61.441 19.9264 64.8036 8.46878C68.7889 8.09516 72.8987 8.59332 76.884 8.2197C79.2502 7.597 79.0011 3.8608 76.6349 3.73626Z" fill="#7D53D6"/>
<path d="M9.50794 38.4828C21.8374 38.4828 34.0423 38.4828 46.3717 38.4828C47.6171 38.6073 48.9871 37.9846 49.2362 36.7392C51.727 27.8969 54.0932 18.93 56.584 10.0877C57.2067 8.46866 55.8368 6.60056 54.0932 6.7251C36.6576 6.7251 19.3466 6.60057 1.911 6.84964C0.291985 6.97418 -0.330714 8.96682 0.167446 10.3368C2.28462 19.0546 4.27726 27.7723 6.51898 36.4901C6.8926 37.7355 8.26254 38.4828 9.50794 38.4828ZM33.1705 33.6257C30.1816 33.6257 27.0681 33.6257 24.0791 33.6257C23.7055 32.3803 23.7055 31.1349 23.7055 29.8895C26.819 29.8895 30.057 29.8895 33.1705 29.8895C33.6687 31.0104 33.1705 32.3803 33.1705 33.6257ZM33.9178 24.7834C30.4306 25.2815 26.9435 25.0325 23.4564 24.9079C23.3319 23.538 23.2073 22.2926 23.3319 20.9227C26.9435 20.9227 30.6797 20.6736 34.1668 21.0472C34.1668 22.2926 34.0423 23.538 33.9178 24.7834ZM39.7711 11.4576C43.5073 11.3331 47.3681 11.3331 51.2288 11.4576C50.9797 12.9521 50.6061 14.5711 49.9834 16.0656C46.4963 16.1901 43.1337 16.0656 39.6466 16.0656C39.1484 14.6957 39.6466 12.9521 39.7711 11.4576ZM39.0239 20.9227C42.1374 20.7981 45.3754 20.9227 48.6135 20.9227C48.2398 22.2926 48.2398 24.0361 47.2435 25.0325C44.3791 25.157 41.6392 25.157 38.7748 25.157C38.7748 23.6625 38.8993 22.2926 39.0239 20.9227ZM38.2767 30.0141C41.0165 29.8895 43.6319 30.0141 46.2472 30.0141C45.9981 31.1349 45.749 32.3803 45.2509 33.5012C42.8846 33.6257 40.5184 33.6257 38.1521 33.6257C38.0276 32.3803 38.1521 31.1349 38.2767 30.0141ZM22.8337 11.4576C26.819 11.4576 30.9288 11.4576 34.9141 11.4576C34.9141 12.9521 34.7895 14.4466 34.5405 15.9411C30.6797 16.0656 26.819 16.0656 22.9582 15.9411C22.7092 14.5711 22.7092 12.9521 22.8337 11.4576ZM18.973 33.5012C16.2331 33.5012 13.6178 33.6257 10.8779 33.5012C10.5043 32.3803 10.1306 31.1349 10.0061 29.8895C12.8705 29.8895 15.7349 29.8895 18.5993 29.8895C18.973 31.1349 19.0975 32.3803 18.973 33.5012ZM18.4748 25.0325C15.2368 25.0325 11.9987 25.2815 8.88524 24.9079C8.38708 23.538 8.138 22.2926 7.88892 20.9227C11.376 20.9227 14.8632 20.6736 18.2257 21.0472C18.4748 22.4171 18.5993 23.6625 18.4748 25.0325ZM5.6472 11.4576C9.75702 11.4576 13.7423 11.3331 17.8521 11.5822C17.9766 13.0766 18.1012 14.5711 17.9766 16.0656C14.2405 16.0656 10.5043 16.0656 6.76806 16.0656C6.2699 14.5711 5.89628 13.0766 5.6472 11.4576Z" fill="#7D53D6"/>
<path d="M13.8668 47.076C11.1269 47.9478 9.25882 51.0613 10.0061 53.8012C10.6288 56.6656 13.6177 58.6583 16.4821 58.0356C19.5956 57.5374 21.8374 54.1748 21.0901 51.1859C20.592 48.0724 16.9803 45.8306 13.8668 47.076Z" fill="#7D53D6"/>
<path d="M42.8846 46.9516C40.6429 47.4498 38.6503 49.3179 38.4012 51.6841C37.7785 54.9222 40.6429 58.2847 43.8809 58.1602C46.9944 58.2847 49.8589 55.2958 49.6098 52.1823C49.6098 48.8197 46.1227 45.9553 42.8846 46.9516Z" fill="#7D53D6"/>
<path d="M70.0343 17.6846H93.0742V24.1606H77.8803V33.2521H91.4552V39.7281H77.8803V55.1711H70.0343V17.6846Z" fill="black"/>
<path d="M96.8104 41.3471V17.6846H104.656V40.9735C104.656 46.5778 106.649 49.3177 111.257 49.3177C115.74 49.3177 117.858 46.5778 117.858 40.9735V17.6846H125.704V41.3471C125.704 50.1895 121.096 55.9183 111.382 55.9183C101.418 55.9183 96.8104 50.1895 96.8104 41.3471Z" fill="black"/>
<path d="M138.656 31.1349V55.1711H130.81V17.6846H138.656L150.612 41.8453V17.6846H158.458V55.1711H150.487L138.656 31.1349Z" fill="black"/>
<path d="M167.674 34.7466V23.1644H164.685V17.9337H186.355V22.6662H190.215V17.5601H196.567V44.5852H190.215V33.7502H185.358V29.0177H190.215V27.3987H185.358V23.1644H183.366V29.3913C183.366 31.2594 183.241 33.2521 182.743 34.8711C184.611 34.8711 186.23 34.7466 187.849 34.3729V39.23C186.23 39.7282 184.237 39.9772 181.871 39.9772H164.187V34.8711H167.674V34.7466ZM197.19 50.9367V56.292H167.3V42.5926H173.652V51.0613H197.19V50.9367ZM177.388 29.6404V23.1644H173.776V34.7466H177.014C177.263 33.3766 177.388 31.384 177.388 29.6404Z" fill="black"/>
<path d="M202.545 55.1711V37.7355H206.032V55.1711H202.545Z" fill="black"/>
<path d="M213.753 55.5447C209.768 55.5447 207.9 53.0539 207.9 48.9441C207.9 44.9588 209.768 42.3435 213.753 42.3435C217.739 42.3435 219.607 44.8343 219.607 48.9441C219.607 53.0539 217.739 55.5447 213.753 55.5447ZM213.753 45.0834C212.01 45.0834 211.387 46.3288 211.387 48.9441C211.387 51.5595 212.01 52.8049 213.753 52.8049C215.497 52.8049 216.12 51.5595 216.12 48.9441C216.12 46.3288 215.497 45.0834 213.753 45.0834Z" fill="black"/>
<path d="M229.321 53.303C228.823 54.673 227.577 55.5447 225.834 55.5447C222.969 55.5447 221.101 53.4276 221.101 48.9441C221.101 44.4607 222.969 42.3435 225.834 42.3435C227.577 42.3435 228.823 43.2153 229.321 44.5852V42.7171H232.808V55.6693C232.808 58.6582 231.064 60.9 227.204 60.9C223.966 60.9 222.098 59.4055 221.724 56.9147H225.211C225.336 57.911 226.083 58.4092 227.204 58.4092C228.574 58.4092 229.321 57.5374 229.321 55.7938V53.303ZM226.955 45.0834C225.211 45.0834 224.588 46.3288 224.588 48.9441C224.588 51.5595 225.211 52.8049 226.955 52.8049C228.698 52.8049 229.321 51.5595 229.321 48.9441C229.321 46.3288 228.698 45.0834 226.955 45.0834Z" fill="black"/>
<path d="M92.7006 10.2123H88.7153V0.498197H89.8362V9.09145H92.9497C93.8215 9.09145 94.5687 8.84237 94.9423 8.46875V0.373657H96.0632V4.60801H97.5577V5.72887H96.0632V10.835H94.9423V9.46507C94.5687 9.96323 93.6969 10.2123 92.7006 10.2123Z" fill="black"/>
<path d="M103.037 6.22703H98.4294V0.498197H103.037V6.22703ZM100.048 7.34789V9.83869H106.026V10.9595H98.9276V7.34789H100.048ZM101.917 5.10617V1.61906H99.5503V5.10617H101.917ZM105.902 0.373657V3.23807H107.272V4.35893H105.902V7.72151H104.781V0.373657H105.902Z" fill="black"/>
<path d="M115.99 0.373657V10.835H114.869V9.58961C114.495 9.96323 113.623 10.2123 112.502 10.2123H108.144V9.21599H112.876C113.748 9.21599 114.495 9.09145 114.869 8.71783V0.373657H115.99ZM108.393 3.73623C108.393 2.61538 108.642 1.61906 109.264 1.1209C109.638 0.747277 110.261 0.498197 111.008 0.498197C111.755 0.498197 112.253 0.747277 112.752 1.1209C113.374 1.7436 113.623 2.61538 113.623 3.73623C113.623 4.85709 113.374 5.85341 112.752 6.35157C112.378 6.72519 111.755 6.97427 111.008 6.97427C110.261 6.97427 109.763 6.72519 109.264 6.35157C108.766 5.72887 108.393 4.85709 108.393 3.73623ZM109.513 3.73623C109.513 4.48347 109.638 5.10617 110.012 5.47979C110.261 5.72887 110.634 5.85341 111.008 5.85341C111.382 5.85341 111.755 5.72887 112.004 5.47979C112.378 5.10617 112.502 4.48347 112.502 3.73623C112.502 2.98899 112.378 2.24176 112.004 1.86814C111.755 1.61906 111.506 1.49452 111.008 1.49452C110.634 1.49452 110.261 1.61906 110.012 1.86814C109.763 2.24176 109.513 2.98899 109.513 3.73623Z" fill="black"/>
<path d="M121.718 5.23071V1.49452H120.847V0.498197H126.202V1.61906H125.33V3.61169C125.33 4.23439 125.33 4.85709 125.206 5.35525C125.704 5.35525 126.326 5.35525 126.7 5.23071V6.22703C126.202 6.35157 125.704 6.47611 125.081 6.47611H120.722V5.23071H121.718ZM128.817 10.9595H121.594V7.34789H122.715V9.83869H128.817V10.9595V10.9595ZM124.209 3.61169V1.61906H122.839V5.35525H124.085C124.209 4.73255 124.209 4.10985 124.209 3.61169ZM125.953 2.86445V1.86814H127.447V0.373657H128.568V7.72151H127.447V4.60801H125.953V3.61169H127.447V2.86445H125.953Z" fill="black"/>
<path d="M138.407 0.373657V10.835H137.286V9.58961C136.912 9.96323 136.041 10.2123 134.92 10.2123H130.561V9.21599H135.293C136.165 9.21599 136.912 9.09145 137.286 8.71783V0.373657H138.407ZM130.81 3.73623C130.81 2.61538 131.059 1.61906 131.682 1.1209C132.055 0.747277 132.678 0.498197 133.425 0.498197C134.172 0.498197 134.671 0.747277 135.169 1.1209C135.791 1.7436 136.041 2.61538 136.041 3.73623C136.041 4.85709 135.791 5.85341 135.169 6.35157C134.795 6.72519 134.172 6.97427 133.425 6.97427C132.678 6.97427 132.18 6.72519 131.682 6.35157C131.183 5.72887 130.81 4.85709 130.81 3.73623ZM132.055 3.73623C132.055 4.48347 132.18 5.10617 132.553 5.47979C132.803 5.72887 133.176 5.85341 133.55 5.85341C133.923 5.85341 134.297 5.72887 134.546 5.47979C134.92 5.10617 135.044 4.48347 135.044 3.73623C135.044 2.98899 134.92 2.24176 134.546 1.86814C134.297 1.61906 134.048 1.49452 133.55 1.49452C133.176 1.49452 132.803 1.61906 132.553 1.86814C132.18 2.24176 132.055 2.98899 132.055 3.73623Z" fill="black"/>
<path d="M140.524 1.61906V0.498197H145.381V1.61906H143.513V1.99268C143.513 3.73623 144.385 4.60801 145.63 4.85709V5.97795C144.509 5.72887 143.513 5.10617 143.015 4.23439C142.517 5.10617 141.52 5.97795 140.399 6.10249V4.98163C141.645 4.73255 142.392 3.73623 142.392 1.99268V1.61906H140.524ZM141.147 10.9595V6.84973H148.245V10.9595H141.147ZM147.125 7.97059H142.268V9.96323H147.125V7.97059ZM148.245 6.22703H147.125V3.73623H145.132V2.61538H147.125V0.373657H148.245V6.22703Z" fill="black"/>
<path d="M150.114 5.47979V4.48347H158.582V5.47979H150.114ZM150.487 1.99268C150.487 1.49452 150.612 1.24544 150.985 0.996357C151.608 0.498197 152.729 0.373657 154.348 0.373657C155.967 0.373657 157.088 0.498197 157.71 0.996357C157.96 1.24544 158.209 1.61906 158.209 1.99268C158.209 2.3663 158.084 2.73991 157.71 2.98899C157.088 3.48715 155.967 3.61169 154.348 3.61169C152.729 3.61169 151.608 3.48715 150.985 2.98899C150.612 2.73991 150.487 2.49084 150.487 1.99268ZM151.857 9.21599V9.96323H158.209V10.9595H150.736V8.21967H156.839V7.47243H150.736V6.35157H157.96V9.21599H151.857ZM151.608 1.99268C151.608 2.11722 151.608 2.24176 151.857 2.3663C152.231 2.61538 152.978 2.61538 154.348 2.61538C155.718 2.61538 156.465 2.49084 156.839 2.3663C156.963 2.24176 157.088 2.11722 157.088 1.99268C157.088 1.86814 157.088 1.7436 156.839 1.61906C156.465 1.36998 155.718 1.24544 154.348 1.24544C152.978 1.24544 152.231 1.36998 151.857 1.61906C151.733 1.7436 151.608 1.86814 151.608 1.99268Z" fill="black"/>
<path d="M162.941 2.36626V1.2454H164.809V0H165.93V1.2454H167.798V2.36626H165.93C165.93 3.98528 166.802 4.85706 167.923 5.10614V6.22699C166.802 5.97791 165.806 5.35522 165.307 4.48344C164.809 5.35522 163.813 6.22699 162.692 6.35153V5.23068C163.813 4.9816 164.685 3.98528 164.685 2.36626H162.941ZM166.926 9.58957C166.179 10.4614 164.934 10.9595 163.19 10.9595V9.96319C164.934 9.96319 166.428 9.34049 166.428 8.21963H163.564V6.97423H170.538V8.09509H167.549C167.549 9.21595 168.919 9.83865 170.787 9.83865V10.9595C168.919 10.9595 167.549 10.4614 166.926 9.58957ZM170.413 0.37362V2.73988H171.783V3.86074H170.413V6.35153H169.293V0.37362H170.413Z" fill="black"/>
<path d="M176.89 10.2123H172.78V0.498197H177.388V1.61906H173.901V9.09145H177.139C178.01 9.09145 178.633 8.84237 179.131 8.46875V0.373657H180.252V4.60801H181.747V5.72887H180.252V10.835H179.131V9.46507C178.633 9.96323 177.886 10.2123 176.89 10.2123Z" fill="black"/>
</svg>
